<?xml version="1.0" standalone="no"?>
<!DOCTYPE svg PUBLIC "-//W3C//DTD SVG 20010904//EN" "http://www.w3.org/TR/2001/REC-SVG-20010904/DTD/svg10.dtd">
<svg version="1.0" xmlns="http://www.w3.org/2000/svg" width="100%" height="100%" viewBox="0 250 1024 524" preserveAspectRatio="xMidYMid meet">

  <g transform="translate(0.000000,1024.000000) scale(0.100000,-0.100000)" stroke="none">
    
    <g fill="#f738f0">
      <path d="M7002 5790 c-101 -62 -96 -214 8 -267 86 -44 191 -24 238 47 20 30 23 45 20 97 -4 67 -25 100 -80 129 -41 21 -146 18 -186 -6z"/>
      <path d="M2390 4925 l0 -515 515 0 515 0 0 318 c0 302 -1 316 -18 295 -9 -11 -43 -52 -74 -91 l-58 -69 0 -157 0 -156 -365 0 -365 0 0 370 0 370 365 0 c318 0 365 -2 365 -15 0 -23 8 -19 81 41 61 49 69 60 69 90 l0 34 -515 0 -515 0 0 -515z"/>
    </g>

    <g fill="#3a5894">
      <path d="M3326 5231 l-289 -238 -155 75 -155 74 -23 -28 c-13 -16 -23 -33 -24 -37 0 -5 255 -305 349 -410 4 -4 150 164 325 374 l318 381 -23 24 c-12 13 -25 24 -28 24 -3 0 -136 -108 -295 -239z"/>
      <path d="M3810 5377 c-83 -19 -156 -63 -190 -115 -36 -54 -44 -91 -38 -177 8 -122 85 -187 290 -243 148 -40 192 -73 136 -103 -43 -23 -273 5 -382 47 -14 5 -16 -7 -16 -115 l0 -121 28 -11 c56 -22 177 -39 275 -39 242 1 366 69 398 218 9 43 9 70 1 111 -22 106 -90 160 -264 211 -163 47 -178 54 -178 84 0 19 7 27 26 32 62 16 267 -13 367 -51 16 -7 17 3 17 118 l0 125 -67 17 c-88 23 -326 30 -403 12z"/>
      <path d="M4713 5375 c-149 -40 -250 -141 -289 -289 -19 -70 -18 -247 2 -321 28 -109 86 -185 178 -232 44 -24 63 -27 146 -28 80 0 102 4 143 24 54 26 92 76 102 133 12 63 25 32 25 -58 l0 -84 140 0 140 0 0 248 c0 266 -7 317 -54 410 -47 93 -162 177 -274 201 -71 15 -195 13 -259 -4z m217 -274 c19 -10 45 -36 58 -57 30 -51 28 -158 -4 -201 -37 -50 -70 -67 -127 -67 -93 0 -150 52 -163 146 -20 141 116 244 236 179z"/>
      <path d="M5652 5375 c-29 -8 -62 -20 -73 -26 -40 -21 -101 -83 -121 -123 -45 -88 -50 -128 -55 -423 l-5 -283 146 0 145 0 3 260 3 260 37 36 c29 30 45 38 86 42 62 5 114 -17 142 -63 19 -30 20 -49 20 -284 l0 -251 145 0 145 0 0 248 c0 220 2 251 18 281 51 94 205 94 252 0 18 -35 20 -60 20 -284 l0 -245 145 0 145 0 0 243 c0 133 -5 273 -10 311 -15 98 -53 178 -112 231 -69 62 -128 80 -263 80 -94 0 -117 -3 -160 -23 -91 -42 -149 -117 -162 -207 -7 -54 -20 -67 -28 -28 -27 129 -61 180 -150 224 -58 28 -78 32 -163 36 -65 2 -114 -2 -150 -12z"/>
      <path d="M6970 4945 l0 -425 140 0 140 0 0 425 0 425 -140 0 -140 0 0 -425z"/>
    </g>

  </g>
</svg>
